<?xml version="1.0" encoding="UTF-8"?>
<!DOCTYPE svg PUBLIC "-//W3C//DTD SVG 1.1//EN" "http://www.w3.org/Graphics/SVG/1.1/DTD/svg11.dtd">
<!-- Creator: CorelDRAW -->
<svg xmlns="http://www.w3.org/2000/svg" xml:space="preserve" width="210mm" height="297mm" version="1.1" style="shape-rendering:geometricPrecision; text-rendering:geometricPrecision; image-rendering:optimizeQuality; fill-rule:evenodd; clip-rule:evenodd"
viewBox="0 0 21000 29700"
 xmlns:xlink="http://www.w3.org/1999/xlink"
 xmlns:xodm="http://www.corel.com/coreldraw/odm/2003">
 <defs>
  <style type="text/css">
   <![CDATA[
    .fil0 {fill:#FEFEFE}
   ]]>
  </style>
 </defs>
 <g id="Слой_x0020_1">
  <metadata id="CorelCorpID_0Corel-Layer"/>
  <g id="_2581572451792">
   <g id="_2581598098688">
    <path class="fil0" d="M3155.1 16089.34c-7.05,-275.16 -10.58,-687.91 -14.11,-917.22l-3.53 -412.74 -758.47 0 -762 0 10.58 324.55 10.58 328.08 275.17 10.58 271.64 10.58 0 578.56 0 582.08 490.36 0 490.36 0 -10.58 -504.47z"/>
    <polygon class="fil0" points="2008.58,16258.68 2008.58,15923.54 1532.33,15923.54 1056.08,15923.54 1056.08,14600.65 1056.08,13277.73 833.83,13277.73 615.11,13277.73 269.39,13623.45 -72.8,13965.64 -72.8,14935.77 -72.8,15905.91 272.92,16251.63 615.11,16593.82 1313.61,16593.82 2008.58,16593.82 "/>
    <path class="fil0" d="M2043.84 14265.49l546.81 0 546.81 0 0 -176.39c0,-169.33 -10.58,-186.97 -285.75,-493.89l-285.75 -317.5 -666.75 0 -666.75 0 0 335.14 0 335.14 405.69 0 405.69 0 0 158.75 0 158.75z"/>
    <path class="fil0" d="M3151.58 13337.7c10.58,35.28 186.97,627.94 391.57,1315.86 204.61,687.91 419.81,1407.58 479.78,1594.55l105.83 345.72 504.47 0 500.94 0 179.92 -652.64 176.39 -656.17 -208.14 -747.88c-112.89,-409.23 -211.66,-765.53 -218.72,-783.17 -3.53,-21.17 -77.61,250.47 -162.28,599.72 -81.14,349.25 -158.75,645.57 -172.86,659.68 -14.11,14.11 -127,-366.88 -254,-846.65l-232.83 -871.36 -553.86 -10.58c-518.57,-7.05 -553.85,-3.52 -536.21,52.92z"/>
    <path class="fil0" d="M5123.59 13355.33c14.11,45.87 215.19,790.23 455.08,1658.05l430.39 1580.44 525.64 0c483.31,0 522.11,-3.53 511.53,-63.5 -7.06,-35.28 -194.03,-779.64 -416.28,-1658.04l-405.69 -1594.56 -560.92 0 -557.39 0 17.64 77.61z"/>
    <path class="fil0" d="M7070.93 13320.05c-7.06,24.69 -88.2,335.13 -176.39,691.44l-158.75 645.58 218.72 860.77c119.95,476.25 229.31,853.72 239.89,839.61 17.64,-21.17 740.83,-2518.83 874.9,-3019.76 14.11,-56.44 -24.7,-59.97 -483.31,-59.97 -366.89,0 -504.48,10.58 -515.06,42.33z"/>
    <path class="fil0" d="M8993.55 13542.3c-88.19,222.25 -1086.55,2896.3 -1107.72,2970.38l-24.69 81.14 529.17 0 529.17 0 303.37 -927.8 303.39 -924.27 -246.94 -652.64c-236.36,-627.95 -246.94,-649.12 -285.75,-546.81z"/>
    <path class="fil0" d="M9169.97 13302.4c0,17.64 190.5,518.58 423.33,1121.83 232.83,599.72 423.33,1104.19 423.33,1118.3 0,14.11 -130.53,28.22 -289.28,35.28l-289.28 10.58 -116.42 324.56 -116.42 328.08 543.28 0 539.75 0 74.08 176.39 74.07 176.39 546.81 0c303.39,0 550.33,-10.58 550.33,-28.22 0,-14.11 -292.8,-754.94 -649.1,-1647.48l-645.57 -1622.77 -536.22 -10.58c-292.8,-3.53 -532.69,3.53 -532.69,17.64z"/>
    <polygon class="fil0" points="11674.66,13277.71 11674.66,14935.76 11674.66,16593.82 12221.47,16593.82 12768.28,16593.82 12768.28,14935.76 12768.28,13277.71 12221.47,13277.71 "/>
    <polygon class="fil0" points="13509.11,15500.2 13509.11,15711.87 13509.11,15923.54 13226.89,15923.54 12944.67,15923.54 12944.67,16258.68 12944.67,16593.82 13720.78,16593.82 14496.89,16593.82 14496.89,16047.01 14496.89,15500.2 14003,15500.2 "/>
    <polygon class="fil0" points="14920.23,14935.76 14920.23,15888.26 14761.48,15888.26 14602.73,15888.26 14602.73,16241.04 14602.73,16593.82 15484.67,16593.82 16366.61,16593.82 16366.61,16241.04 16366.61,15888.26 16207.86,15888.26 16049.11,15888.26 16049.11,14935.76 16049.11,13983.27 16207.86,13983.27 16366.61,13983.27 16366.61,13630.49 16366.61,13277.71 15484.67,13277.71 14602.73,13277.71 14602.73,13630.49 14602.73,13983.27 14761.48,13983.27 14920.23,13983.27 "/>
    <path class="fil0" d="M17622.49 13464.67c-10.58,-10.58 -610.29,1573.38 -1075.96,2839.85l-109.36 292.81 536.22 -10.58 532.68 -10.58 296.33 -881.94c158.75,-483.3 292.81,-906.63 292.81,-934.85 0,-28.22 -102.31,-328.08 -229.3,-666.77 -127,-338.66 -236.36,-620.88 -243.42,-627.94z"/>
    <path class="fil0" d="M17742.45 13284.78c0,7.05 197.55,518.58 437.44,1139.47l437.44 1128.88 -292.81 10.58 -292.81 10.58 -109.36 299.86c-59.97,165.81 -109.36,317.5 -109.36,335.14 0,17.64 243.42,31.75 539.75,31.75l536.22 0 63.5 176.39 63.5 176.39 564.44 0 560.92 0 -45.86 -116.42c-28.22,-59.97 -324.55,-807.86 -663.21,-1654.51l-613.83 -1545.17 -536.22 0c-296.33,0 -539.75,3.53 -539.75,7.06z"/>
    <path class="fil0" d="M20141.32 17087.7l-3386.66 0 -3386.67 0 0 599.72 0 599.72 3386.67 0 3386.66 0 0 -599.72 0 -599.72zm-846.67 589.14c-141.11,-91.72 -179.91,-229.31 -88.19,-321.02 95.25,-91.72 405.69,-67.03 405.69,31.75 0,31.75 -49.39,45.86 -165.81,42.33 -236.36,-10.59 -232.83,84.66 7.06,215.19 137.58,74.09 179.91,116.42 186.97,194.03 24.69,201.08 -211.67,324.55 -412.75,218.72 -59.97,-28.23 -109.36,-67.03 -109.36,-84.67 0,-59.97 42.33,-63.5 144.64,-14.11 123.47,59.97 204.61,49.39 257.53,-35.28 42.33,-70.55 28.22,-84.66 -225.78,-246.94zm-857.24 -370.43c264.58,21.17 363.36,127 363.36,384.53 0,148.16 -17.64,194.03 -102.31,282.22 -88.19,84.67 -130.53,102.31 -282.22,102.31l-179.92 0 0.01 -391.59 0 -391.58 201.08 14.11zm-624.4 63.52c91.72,91.72 88.19,225.78 -7.06,317.5l-81.14 74.08 81.14 137.58c91.72,162.28 95.25,176.39 24.69,176.39 -28.22,0 -91.72,-70.56 -144.64,-158.75 -56.44,-98.78 -116.42,-158.75 -158.75,-158.75 -56.45,0 -67.03,24.69 -67.03,158.75 0,116.42 -14.11,158.75 -52.92,158.75 -42.33,0 -52.91,-67.03 -52.89,-388.05l0 -388.06 194.02 0c148.16,0 211.66,17.64 264.58,70.56zm-913.71 21.15c70.56,74.08 84.67,127 84.67,299.86 0,176.39 -14.11,218.72 -91.72,299.86 -130.53,130.53 -317.5,130.53 -448.03,3.53 -81.14,-84.66 -95.25,-123.47 -95.25,-310.44 0,-190.5 10.59,-222.25 98.77,-299.87 137.59,-119.94 335.14,-116.41 451.56,7.06zm-1202.96 67.04c-225.78,204.61 -10.59,649.11 246.94,511.53 56.45,-28.22 88.2,-31.75 116.42,-3.53 52.92,52.91 -201.08,155.22 -303.39,123.47 -127,-35.28 -232.84,-158.75 -257.53,-289.28 -28.23,-155.22 38.8,-377.47 137.59,-448.03 134.06,-95.25 412.75,-52.92 412.75,59.97 0,17.64 -63.5,17.64 -141.11,7.06 -109.36,-17.63 -158.75,-10.58 -211.67,38.81zm-885.48 264.58l10.58 130.53 10.58 134.06 186.97 10.58c271.64,14.11 222.25,77.61 -63.5,77.61l-246.94 0 0 -388.07 0 -388.06 229.31 0c179.92,0 229.31,10.59 229.31,52.92 0,38.81 -42.33,52.92 -176.39,52.92 -172.86,0 -176.39,3.53 -176.39,102.31 0,98.78 10.59,105.84 148.17,116.42 211.66,14.11 222.25,98.78 10.58,98.78l-162.28 0zm-522.1 -45.86c-91.72,77.61 -91.72,88.2 14.11,257.53 84.67,130.53 84.67,141.11 21.17,141.11 -42.33,0 -102.31,-56.44 -158.75,-158.75 -59.97,-102.31 -119.95,-158.75 -162.28,-158.75 -59.98,0 -70.56,24.69 -70.56,158.75 0,116.42 -14.11,158.75 -52.92,158.75 -42.34,0 -52.92,-67.03 -52.91,-388.05l0 -388.06 169.33 0c232.84,0 338.67,63.5 352.78,201.08 7.06,81.14 -10.58,130.53 -59.97,176.39z"/>
    <path class="fil0" d="M18638.5 17482.8c-38.81,-56.44 -88.2,-77.61 -176.39,-77.61l-123.47 0 10.58 289.28 10.58 292.81 105.83 -10.58c59.97,-3.53 134.05,-42.34 169.33,-84.67 74.09,-88.19 77.61,-303.39 3.54,-409.23z"/>
    <path class="fil0" d="M17611.9 17662.73c119.94,-24.7 190.5,-134.06 127,-208.13 -21.17,-28.22 -95.25,-49.39 -158.75,-49.39 -112.88,0 -119.94,7.05 -119.94,119.94 0,144.64 21.16,162.27 151.69,137.58z"/>
    <path class="fil0" d="M16878.14 17694.48c0,-95.25 -21.17,-197.56 -49.39,-229.3 -59.98,-77.61 -261.06,-77.61 -324.56,-3.53 -24.69,31.75 -45.86,134.05 -45.86,232.83 0,144.64 17.64,190.5 81.14,243.42 102.31,84.67 151.69,84.67 254,0 67.03,-56.45 84.67,-102.31 84.67,-243.42z"/>
    <path class="fil0" d="M14105.3 17655.67c116.42,-31.75 172.86,-123.47 112.89,-194.03 -28.23,-31.75 -102.31,-56.44 -165.81,-56.44 -112.88,0 -119.94,7.05 -119.94,119.94 0,130.53 42.33,162.28 172.86,130.53z"/>
   </g>
  </g>
 </g>
</svg>
